# xmcd
#
# Track frame offsets:
#	150
#	15550
#	30468
#	46362
#	61779
#	77608
#	92823
#	105955
#	122196
#	138083
#
# Disc length: 2022 seconds
#
# Revision: 0
# Processed by: cddbd v1.5.2PL0 Copyright (c) Steve Scherf et al.
# Submitted via: EasyCDDAExtractor 16.0.8.2
#
DISCID=6e07e40a
DTITLE=Καζαντζίδης Στέλιος - Από τα πολλά φαρμάκια-Σ. Καζαντζίδης
DYEAR=2006
DGENRE=Λαϊκή
TTITLE0=Καζαντζίδης Στέλιος-Στάμου Ρένα - Από τα πολλά φαρμάκια [Στέλιου Χρυσί
TTITLE0=νη]
TTITLE1=Καζαντζίδης Στέλιος-Γρύλλη Μαρία - Ξεσπάει η μπόρα [Γιάννη Παπαϊωάννου
TTITLE1=]
TTITLE2=Καζαντζίδης Στέλιος - Της βροχούλας το νεράκι [Γ. Μητσάκη]
TTITLE3=Καζαντζίδης Στέλιος-Γκρέϋ Καίτη - Κανείς δεν ήρθε να με δει [Κ. Λαβίδα
TTITLE3=Χρ. Κολοκοτρώνη]
TTITLE4=Καζαντζίδης Στέλιος-Γκρέϋ Καίτη - Στη θάλασσα θα πέσω [Γ. Ζαμπέτα-Χ. Β
TTITLE4=ασιλειάδη]
TTITLE5=Καζαντζίδης Στέλιος - Με τι καρδιά, με τι ψυχή [Στ. Χρυσίνη-Χρ. Κολοκο
TTITLE5=τρώνη]
TTITLE6=Καζαντζίδης Στέλιος - Στην ψάθα θα πεθάνω [Βασίλη Καραπατάκη-Κ. Βίρβου
TTITLE6=]
TTITLE7=Καζαντζίδης Στέλιος-Στάμου Ρένα - Ζωή είν' αυτή Ζωΐτσα μου [Γ. Μητσάκη
TTITLE7=]
TTITLE8=Καζαντζίδης Στέλιος - Καθένας με τον πόνο του [Θ.Δερβενιώτη-Χρ.Κολοκοτ
TTITLE8=ρώνη]
TTITLE9=Καζαντζίδης Στέλιος - Το κλάμα της πενιάς [Ζωής Γρυπάρη]
EXTD=
EXTT0=μπουζούκι Γεράσιμος Κλουβάτος-Γιάννης Αγγέλου\n
EXTT1=μπουζούκι Παπαϊωάννου-Ζαμπέτας\n
EXTT2=μπουζούκι Γ. Μητσάκης\n
EXTT3=μπουζούκι Αν. Αθανασίου\n
EXTT4=μπουζούκι Γιάννης Τατασόπουλος-Γιώργος Τσιμπίδης\n
EXTT5=μπουζούκι Βασίλης Σπηλιόπουλος\n
EXTT6=μπουζούκι Γιώργος Τσιμπίδης\n
EXTT7=μπουζούκι Γ. Μητσάκης\n
EXTT8=
EXTT9=μπουζούκι Μ. Χιώτης\n
PLAYORDER=
